<svg width="80" height="80" viewBox="0 0 80 80" fill="none" xmlns="http://www.w3.org/2000/svg">
<path d="M8.57086 1H70.4329V48.069C70.4329 65.1517 56.5846 79 39.5019 79V79C22.4192 79 8.57086 65.1517 8.57086 48.069V1Z" fill="#00498D"/>
<path d="M33.2197 13.1032H36.8056V9.96552H41.7431V13.1032H45.329V9.96552H50.2607V17.1384L47.5712 19.8278L48.4677 31.9313H56.9843V28.3444L60.123 25.2067L63.2607 28.3444V33.7243L61.916 36.0534L65.496 49.4138L65.9501 53.8962H45.329V47.6208C45.329 44.2286 42.6382 41.4666 39.2744 41.3503C35.9108 41.4669 33.2197 44.2288 33.2197 47.6208V53.8962H13.0536V49.4138L16.6337 36.0534L15.289 33.7243V28.3444L18.4267 25.2067L21.5644 28.3444V31.9313H30.082L30.9785 19.8278L28.289 17.1384V9.96552H33.2197V13.1032Z" fill="white"/>
<path d="M69.7206 52.1035C68.0082 67.2387 55.1642 78.9998 39.5712 78.9999C23.9781 78.9999 11.1333 67.2388 9.42084 52.1035H69.7206Z" fill="#FF5050"/>
<mask id="mask0_390_92053" style="mask-type:alpha" maskUnits="userSpaceOnUse" x="8" y="1" width="63" height="78">
<path d="M8.60406 1H70.4661V48.069C70.4661 65.1517 56.6178 79 39.5351 79V79C22.4524 79 8.60406 65.1517 8.60406 48.069V1Z" fill="#00498D"/>
</mask>
<g mask="url(#mask0_390_92053)">
<path d="M63.2674 59.5552C67.1866 57.3893 71.2503 57.3894 75.1695 59.5552L73.0016 63.4793C70.4317 62.0591 68.006 62.0592 65.4361 63.4793C61.5168 65.6453 57.4525 65.6453 53.5332 63.4793C50.9632 62.0591 48.5376 62.0591 45.9676 63.4793C42.0484 65.6451 37.9847 65.6451 34.0656 63.4793C31.4956 62.0591 29.07 62.0591 26.5 63.4793C22.5807 65.6453 18.5164 65.6453 14.5971 63.4793C12.0271 62.0592 9.60148 62.0591 7.03154 63.4793L4.86371 59.5552C8.78291 57.3894 12.8466 57.3893 16.7658 59.5552C19.3358 60.9754 21.7613 60.9754 24.3313 59.5552C28.2505 57.3893 32.3142 57.3894 36.2334 59.5552C38.8034 60.9754 41.2298 60.9754 43.7998 59.5552C47.719 57.3894 51.7827 57.3893 55.7019 59.5552C58.2719 60.9754 60.6974 60.9754 63.2674 59.5552Z" fill="white"/>
<path d="M63.2674 67.6241C67.1866 65.4583 71.2503 65.4584 75.1695 67.6241L73.0016 71.5483C70.4317 70.1281 68.006 70.1281 65.4361 71.5483C61.5168 73.7142 57.4525 73.7142 53.5332 71.5483C50.9632 70.1281 48.5376 70.128 45.9676 71.5483C42.0484 73.7141 37.9847 73.7141 34.0656 71.5483C31.4956 70.128 29.07 70.1281 26.5 71.5483C22.5807 73.7142 18.5164 73.7142 14.5971 71.5483C12.0271 70.1281 9.60148 70.1281 7.03154 71.5483L4.86371 67.6241C8.78291 65.4584 12.8466 65.4583 16.7658 67.6241C19.3358 69.0444 21.7613 69.0444 24.3313 67.6241C28.2505 65.4583 32.3142 65.4584 36.2334 67.6241C38.8034 69.0444 41.2298 69.0444 43.7998 67.6241C47.719 65.4584 51.7827 65.4583 55.7019 67.6241C58.2719 69.0444 60.6974 69.0444 63.2674 67.6241Z" fill="white"/>
</g>
<path d="M65.9502 48.069V5.48276H13.0536V48.069C13.0536 62.6759 24.8949 74.5172 39.5019 74.5172V79C22.6861 79 9.0049 65.5812 8.58137 48.8675L8.57086 48.069V1H70.4329V48.069L70.4224 48.8675C69.9989 65.5812 56.3177 79 39.5019 79V74.5172C54.1089 74.5172 65.9502 62.6759 65.9502 48.069Z" fill="#00498D"/>
</svg>
