<svg width="80" height="80" viewBox="0 0 80 80" fill="none" xmlns="http://www.w3.org/2000/svg">
<path d="M37 40C37 48.8366 29.8366 56 21 56C12.1634 56 5 48.8366 5 40C5 31.1634 12.1634 24 21 24C29.8366 24 37 31.1634 37 40Z" fill="#38B0B0"/>
<path d="M75 40C75 48.8366 67.8366 56 59 56C50.1634 56 43 48.8366 43 40C43 31.1634 50.1634 24 59 24C67.8366 24 75 31.1634 75 40Z" fill="#38B0B0"/>
<path d="M56 21C56 29.8366 48.8366 37 40 37C31.1634 37 24 29.8366 24 21C24 12.1634 31.1634 5 40 5C48.8366 5 56 12.1634 56 21Z" fill="#38B0B0"/>
<path d="M56 59C56 67.8366 48.8366 75 40 75C31.1634 75 24 67.8366 24 59C24 50.1634 31.1634 43 40 43C48.8366 43 56 50.1634 56 59Z" fill="#38B0B0"/>
</svg>
